<svg width="240" height="80" viewBox="0 0 240 80" fill="none" xmlns="http://www.w3.org/2000/svg">
<g filter="url(#filter0_d_19_21)">
<rect x="15" y="7" width="210" height="50" rx="4" fill="#3252DF"/>
</g>
<path d="M51.848 38L48.968 32.996H47.402V38H45.35V25.49H49.67C50.63 25.49 51.44 25.658 52.1 25.994C52.772 26.33 53.27 26.78 53.594 27.344C53.93 27.908 54.098 28.538 54.098 29.234C54.098 30.05 53.858 30.794 53.378 31.466C52.91 32.126 52.184 32.576 51.2 32.816L54.296 38H51.848ZM47.402 31.358H49.67C50.438 31.358 51.014 31.166 51.398 30.782C51.794 30.398 51.992 29.882 51.992 29.234C51.992 28.586 51.8 28.082 51.416 27.722C51.032 27.35 50.45 27.164 49.67 27.164H47.402V31.358ZM65.813 32.798C65.813 33.17 65.789 33.506 65.741 33.806H58.163C58.223 34.598 58.517 35.234 59.045 35.714C59.573 36.194 60.221 36.434 60.989 36.434C62.093 36.434 62.873 35.972 63.329 35.048H65.543C65.243 35.96 64.697 36.71 63.905 37.298C63.125 37.874 62.153 38.162 60.989 38.162C60.041 38.162 59.189 37.952 58.433 37.532C57.689 37.1 57.101 36.5 56.669 35.732C56.249 34.952 56.039 34.052 56.039 33.032C56.039 32.012 56.243 31.118 56.651 30.35C57.071 29.57 57.653 28.97 58.397 28.55C59.153 28.13 60.017 27.92 60.989 27.92C61.925 27.92 62.759 28.124 63.491 28.532C64.223 28.94 64.793 29.516 65.201 30.26C65.609 30.992 65.813 31.838 65.813 32.798ZM63.671 32.15C63.659 31.394 63.389 30.788 62.861 30.332C62.333 29.876 61.679 29.648 60.899 29.648C60.191 29.648 59.585 29.876 59.081 30.332C58.577 30.776 58.277 31.382 58.181 32.15H63.671ZM67.1484 32.996C67.1484 32 67.3524 31.118 67.7604 30.35C68.1804 29.582 68.7444 28.988 69.4524 28.568C70.1724 28.136 70.9644 27.92 71.8284 27.92C72.6084 27.92 73.2864 28.076 73.8624 28.388C74.4504 28.688 74.9184 29.066 75.2664 29.522V28.082H77.3364V38H75.2664V36.524C74.9184 36.992 74.4444 37.382 73.8444 37.694C73.2444 38.006 72.5604 38.162 71.7924 38.162C70.9404 38.162 70.1604 37.946 69.4524 37.514C68.7444 37.07 68.1804 36.458 67.7604 35.678C67.3524 34.886 67.1484 33.992 67.1484 32.996ZM75.2664 33.032C75.2664 32.348 75.1224 31.754 74.8344 31.25C74.5584 30.746 74.1924 30.362 73.7364 30.098C73.2804 29.834 72.7884 29.702 72.2604 29.702C71.7324 29.702 71.2404 29.834 70.7844 30.098C70.3284 30.35 69.9564 30.728 69.6684 31.232C69.3924 31.724 69.2544 32.312 69.2544 32.996C69.2544 33.68 69.3924 34.28 69.6684 34.796C69.9564 35.312 70.3284 35.708 70.7844 35.984C71.2524 36.248 71.7444 36.38 72.2604 36.38C72.7884 36.38 73.2804 36.248 73.7364 35.984C74.1924 35.72 74.5584 35.336 74.8344 34.832C75.1224 34.316 75.2664 33.716 75.2664 33.032ZM79.3476 32.996C79.3476 32 79.5516 31.118 79.9596 30.35C80.3796 29.582 80.9436 28.988 81.6516 28.568C82.3716 28.136 83.1696 27.92 84.0456 27.92C84.6936 27.92 85.3296 28.064 85.9536 28.352C86.5896 28.628 87.0936 29 87.4656 29.468V24.68H89.5356V38H87.4656V36.506C87.1296 36.986 86.6616 37.382 86.0616 37.694C85.4736 38.006 84.7956 38.162 84.0276 38.162C83.1636 38.162 82.3716 37.946 81.6516 37.514C80.9436 37.07 80.3796 36.458 79.9596 35.678C79.5516 34.886 79.3476 33.992 79.3476 32.996ZM87.4656 33.032C87.4656 32.348 87.3216 31.754 87.0336 31.25C86.7576 30.746 86.3916 30.362 85.9356 30.098C85.4796 29.834 84.9876 29.702 84.4596 29.702C83.9316 29.702 83.4396 29.834 82.9836 30.098C82.5276 30.35 82.1556 30.728 81.8676 31.232C81.5916 31.724 81.4536 32.312 81.4536 32.996C81.4536 33.68 81.5916 34.28 81.8676 34.796C82.1556 35.312 82.5276 35.708 82.9836 35.984C83.4516 36.248 83.9436 36.38 84.4596 36.38C84.9876 36.38 85.4796 36.248 85.9356 35.984C86.3916 35.72 86.7576 35.336 87.0336 34.832C87.3216 34.316 87.4656 33.716 87.4656 33.032ZM102.613 38.126C101.449 38.126 100.375 37.856 99.3906 37.316C98.4186 36.764 97.6446 36.002 97.0686 35.03C96.5046 34.046 96.2226 32.942 96.2226 31.718C96.2226 30.494 96.5046 29.396 97.0686 28.424C97.6446 27.452 98.4186 26.696 99.3906 26.156C100.375 25.604 101.449 25.328 102.613 25.328C103.789 25.328 104.863 25.604 105.835 26.156C106.819 26.696 107.593 27.452 108.157 28.424C108.721 29.396 109.003 30.494 109.003 31.718C109.003 32.942 108.721 34.046 108.157 35.03C107.593 36.002 106.819 36.764 105.835 37.316C104.863 37.856 103.789 38.126 102.613 38.126ZM102.613 36.344C103.441 36.344 104.179 36.158 104.827 35.786C105.475 35.402 105.979 34.862 106.339 34.166C106.711 33.458 106.897 32.642 106.897 31.718C106.897 30.794 106.711 29.984 106.339 29.288C105.979 28.592 105.475 28.058 104.827 27.686C104.179 27.314 103.441 27.128 102.613 27.128C101.785 27.128 101.047 27.314 100.399 27.686C99.7506 28.058 99.2406 28.592 98.8686 29.288C98.5086 29.984 98.3286 30.794 98.3286 31.718C98.3286 32.642 98.5086 33.458 98.8686 34.166C99.2406 34.862 99.7506 35.402 100.399 35.786C101.047 36.158 101.785 36.344 102.613 36.344ZM120.004 28.082V38H117.952V36.83C117.628 37.238 117.202 37.562 116.674 37.802C116.158 38.03 115.606 38.144 115.018 38.144C114.238 38.144 113.536 37.982 112.912 37.658C112.3 37.334 111.814 36.854 111.454 36.218C111.106 35.582 110.932 34.814 110.932 33.914V28.082H112.966V33.608C112.966 34.496 113.188 35.18 113.632 35.66C114.076 36.128 114.682 36.362 115.45 36.362C116.218 36.362 116.824 36.128 117.268 35.66C117.724 35.18 117.952 34.496 117.952 33.608V28.082H120.004ZM124.763 29.522C125.063 29.018 125.459 28.628 125.951 28.352C126.455 28.064 127.049 27.92 127.733 27.92V30.044H127.211C126.407 30.044 125.795 30.248 125.375 30.656C124.967 31.064 124.763 31.772 124.763 32.78V38H122.711V28.082H124.763V29.522ZM138.417 38.126C137.577 38.126 136.821 37.982 136.149 37.694C135.477 37.394 134.949 36.974 134.565 36.434C134.181 35.894 133.989 35.264 133.989 34.544H136.185C136.233 35.084 136.443 35.528 136.815 35.876C137.199 36.224 137.733 36.398 138.417 36.398C139.125 36.398 139.677 36.23 140.073 35.894C140.469 35.546 140.667 35.102 140.667 34.562C140.667 34.142 140.541 33.8 140.289 33.536C140.049 33.272 139.743 33.068 139.371 32.924C139.011 32.78 138.507 32.624 137.859 32.456C137.043 32.24 136.377 32.024 135.861 31.808C135.357 31.58 134.925 31.232 134.565 30.764C134.205 30.296 134.025 29.672 134.025 28.892C134.025 28.172 134.205 27.542 134.565 27.002C134.925 26.462 135.429 26.048 136.077 25.76C136.725 25.472 137.475 25.328 138.327 25.328C139.539 25.328 140.529 25.634 141.297 26.246C142.077 26.846 142.509 27.674 142.593 28.73H140.325C140.289 28.274 140.073 27.884 139.677 27.56C139.281 27.236 138.759 27.074 138.111 27.074C137.523 27.074 137.043 27.224 136.671 27.524C136.299 27.824 136.113 28.256 136.113 28.82C136.113 29.204 136.227 29.522 136.455 29.774C136.695 30.014 136.995 30.206 137.355 30.35C137.715 30.494 138.207 30.65 138.831 30.818C139.659 31.046 140.331 31.274 140.847 31.502C141.375 31.73 141.819 32.084 142.179 32.564C142.551 33.032 142.737 33.662 142.737 34.454C142.737 35.09 142.563 35.69 142.215 36.254C141.879 36.818 141.381 37.274 140.721 37.622C140.073 37.958 139.305 38.126 138.417 38.126ZM147.553 29.756V35.246C147.553 35.618 147.637 35.888 147.805 36.056C147.985 36.212 148.285 36.29 148.705 36.29H149.965V38H148.345C147.421 38 146.713 37.784 146.221 37.352C145.729 36.92 145.483 36.218 145.483 35.246V29.756H144.313V28.082H145.483V25.616H147.553V28.082H149.965V29.756H147.553ZM156.158 38.162C155.222 38.162 154.376 37.952 153.62 37.532C152.864 37.1 152.27 36.5 151.838 35.732C151.406 34.952 151.19 34.052 151.19 33.032C151.19 32.024 151.412 31.13 151.856 30.35C152.3 29.57 152.906 28.97 153.674 28.55C154.442 28.13 155.3 27.92 156.248 27.92C157.196 27.92 158.054 28.13 158.822 28.55C159.59 28.97 160.196 29.57 160.64 30.35C161.084 31.13 161.306 32.024 161.306 33.032C161.306 34.04 161.078 34.934 160.622 35.714C160.166 36.494 159.542 37.1 158.75 37.532C157.97 37.952 157.106 38.162 156.158 38.162ZM156.158 36.38C156.686 36.38 157.178 36.254 157.634 36.002C158.102 35.75 158.48 35.372 158.768 34.868C159.056 34.364 159.2 33.752 159.2 33.032C159.2 32.312 159.062 31.706 158.786 31.214C158.51 30.71 158.144 30.332 157.688 30.08C157.232 29.828 156.74 29.702 156.212 29.702C155.684 29.702 155.192 29.828 154.736 30.08C154.292 30.332 153.938 30.71 153.674 31.214C153.41 31.706 153.278 32.312 153.278 33.032C153.278 34.1 153.548 34.928 154.088 35.516C154.64 36.092 155.33 36.38 156.158 36.38ZM165.386 29.522C165.686 29.018 166.082 28.628 166.574 28.352C167.078 28.064 167.672 27.92 168.356 27.92V30.044H167.834C167.03 30.044 166.418 30.248 165.998 30.656C165.59 31.064 165.386 31.772 165.386 32.78V38H163.334V28.082H165.386V29.522ZM171.287 26.768C170.915 26.768 170.603 26.642 170.351 26.39C170.099 26.138 169.973 25.826 169.973 25.454C169.973 25.082 170.099 24.77 170.351 24.518C170.603 24.266 170.915 24.14 171.287 24.14C171.647 24.14 171.953 24.266 172.205 24.518C172.457 24.77 172.583 25.082 172.583 25.454C172.583 25.826 172.457 26.138 172.205 26.39C171.953 26.642 171.647 26.768 171.287 26.768ZM172.295 28.082V38H170.243V28.082H172.295ZM184.079 32.798C184.079 33.17 184.055 33.506 184.007 33.806H176.429C176.489 34.598 176.783 35.234 177.311 35.714C177.839 36.194 178.487 36.434 179.255 36.434C180.359 36.434 181.139 35.972 181.595 35.048H183.809C183.509 35.96 182.963 36.71 182.171 37.298C181.391 37.874 180.419 38.162 179.255 38.162C178.307 38.162 177.455 37.952 176.699 37.532C175.955 37.1 175.367 36.5 174.935 35.732C174.515 34.952 174.305 34.052 174.305 33.032C174.305 32.012 174.509 31.118 174.917 30.35C175.337 29.57 175.919 28.97 176.663 28.55C177.419 28.13 178.283 27.92 179.255 27.92C180.191 27.92 181.025 28.124 181.757 28.532C182.489 28.94 183.059 29.516 183.467 30.26C183.875 30.992 184.079 31.838 184.079 32.798ZM181.937 32.15C181.925 31.394 181.655 30.788 181.127 30.332C180.599 29.876 179.945 29.648 179.165 29.648C178.457 29.648 177.851 29.876 177.347 30.332C176.843 30.776 176.543 31.382 176.447 32.15H181.937ZM189.698 38.162C188.918 38.162 188.216 38.024 187.592 37.748C186.98 37.46 186.494 37.076 186.134 36.596C185.774 36.104 185.582 35.558 185.558 34.958H187.682C187.718 35.378 187.916 35.732 188.276 36.02C188.648 36.296 189.11 36.434 189.662 36.434C190.238 36.434 190.682 36.326 190.994 36.11C191.318 35.882 191.48 35.594 191.48 35.246C191.48 34.874 191.3 34.598 190.94 34.418C190.592 34.238 190.034 34.04 189.266 33.824C188.522 33.62 187.916 33.422 187.448 33.23C186.98 33.038 186.572 32.744 186.224 32.348C185.888 31.952 185.72 31.43 185.72 30.782C185.72 30.254 185.876 29.774 186.188 29.342C186.5 28.898 186.944 28.55 187.52 28.298C188.108 28.046 188.78 27.92 189.536 27.92C190.664 27.92 191.57 28.208 192.254 28.784C192.95 29.348 193.322 30.122 193.37 31.106H191.318C191.282 30.662 191.102 30.308 190.778 30.044C190.454 29.78 190.016 29.648 189.464 29.648C188.924 29.648 188.51 29.75 188.222 29.954C187.934 30.158 187.79 30.428 187.79 30.764C187.79 31.028 187.886 31.25 188.078 31.43C188.27 31.61 188.504 31.754 188.78 31.862C189.056 31.958 189.464 32.084 190.004 32.24C190.724 32.432 191.312 32.63 191.768 32.834C192.236 33.026 192.638 33.314 192.974 33.698C193.31 34.082 193.484 34.592 193.496 35.228C193.496 35.792 193.34 36.296 193.028 36.74C192.716 37.184 192.272 37.532 191.696 37.784C191.132 38.036 190.466 38.162 189.698 38.162Z" fill="white"/>
<defs>
<filter id="filter0_d_19_21" x="0" y="0" width="240" height="80" filterUnits="userSpaceOnUse" color-interpolation-filters="sRGB">
<feFlood flood-opacity="0" result="BackgroundImageFix"/>
<feColorMatrix in="SourceAlpha" type="matrix" values="0 0 0 0 0 0 0 0 0 0 0 0 0 0 0 0 0 0 127 0" result="hardAlpha"/>
<feOffset dy="8"/>
<feGaussianBlur stdDeviation="7.5"/>
<feColorMatrix type="matrix" values="0 0 0 0 0.196078 0 0 0 0 0.321569 0 0 0 0 0.87451 0 0 0 0.3 0"/>
<feBlend mode="normal" in2="BackgroundImageFix" result="effect1_dropShadow_19_21"/>
<feBlend mode="normal" in="SourceGraphic" in2="effect1_dropShadow_19_21" result="shape"/>
</filter>
</defs>
</svg>
